<svg width="46" height="27" viewBox="0 0 46 27" fill="none" xmlns="http://www.w3.org/2000/svg">
<path d="M7.10352 22.2539H17.8438V27H0.933594V1.40625H7.10352V22.2539ZM25.3419 27H19.4005V7.98047H25.3419V27ZM19.0489 3.07617C19.0489 2.23242 19.3536 1.54102 19.963 1.00195C20.5723 0.462891 21.3634 0.193359 22.336 0.193359C23.3087 0.193359 24.0997 0.462891 24.7091 1.00195C25.3184 1.54102 25.6231 2.23242 25.6231 3.07617C25.6231 3.91992 25.3184 4.61133 24.7091 5.15039C24.0997 5.68945 23.3087 5.95898 22.336 5.95898C21.3634 5.95898 20.5723 5.68945 19.963 5.15039C19.3536 4.61133 19.0489 3.91992 19.0489 3.07617ZM34.3693 22.2539H45.1095V27H28.1994V1.40625H34.3693V22.2539Z" fill="#514848"/>
</svg>
