<svg width="142" height="53" viewBox="0 0 142 53" fill="none" xmlns="http://www.w3.org/2000/svg">
<path d="M103.104 33.2539H113.844V38H96.9336V12.4062H103.104V33.2539ZM121.342 38H115.4V18.9805H121.342V38ZM115.049 14.0762C115.049 13.2324 115.354 12.541 115.963 12.002C116.572 11.4629 117.363 11.1934 118.336 11.1934C119.309 11.1934 120.1 11.4629 120.709 12.002C121.318 12.541 121.623 13.2324 121.623 14.0762C121.623 14.9199 121.318 15.6113 120.709 16.1504C120.1 16.6895 119.309 16.959 118.336 16.959C117.363 16.959 116.572 16.6895 115.963 16.1504C115.354 15.6113 115.049 14.9199 115.049 14.0762ZM130.369 33.2539H141.11V38H124.199V12.4062H130.369V33.2539Z" fill="#514848"/>
<path d="M52.5195 18.9805L52.6074 21.0898C54.002 19.4492 55.8828 18.6289 58.25 18.6289C60.9102 18.6289 62.7207 19.6484 63.6816 21.6875C64.3145 20.7734 65.1348 20.0352 66.1426 19.4727C67.1621 18.9102 68.3633 18.6289 69.7461 18.6289C73.918 18.6289 76.0391 20.8379 76.1094 25.2559V38H72.8574V25.4492C72.8574 24.0898 72.5469 23.0762 71.9258 22.4082C71.3047 21.7285 70.2617 21.3887 68.7969 21.3887C67.5898 21.3887 66.5879 21.752 65.791 22.4785C64.9941 23.1934 64.5312 24.1602 64.4023 25.3789V38H61.1328V25.5371C61.1328 22.7715 59.7793 21.3887 57.0723 21.3887C54.9395 21.3887 53.4805 22.2969 52.6953 24.1133V38H49.4434V18.9805H52.5195ZM86.1739 33.2363L90.6036 18.9805H94.0841L86.4376 40.9355C85.254 44.0996 83.3731 45.6816 80.795 45.6816L80.1798 45.6289L78.9669 45.4004V42.7637L79.8458 42.834C80.9473 42.834 81.8028 42.6113 82.4122 42.166C83.0333 41.7207 83.543 40.9062 83.9415 39.7227L84.6622 37.7891L77.877 18.9805H81.4278L86.1739 33.2363Z" fill="#514848"/>
<path d="M18.3863 12.1934C12.7385 12.5403 7.8039 15.4124 4.83544 20.0579C2.25248 24.1251 1.3658 28.8091 2.36814 33.2232C3.3512 37.5217 5.99197 41.2419 9.82785 43.7092C12.218 45.2513 15.4949 46.1572 19.0031 46.2729C19.2537 46.2729 19.5043 46.2922 19.7549 46.2922C23.5136 46.2922 27.3302 45.3862 30.8384 43.6514C31.3781 43.3815 31.6095 42.7262 31.3396 42.1864C31.0697 41.6467 30.4144 41.4154 29.8746 41.6853C22.4535 45.3669 14.8781 44.3646 11.0037 41.878C7.6497 39.7384 5.33661 36.5001 4.48847 32.7606C3.62107 28.9247 4.39209 24.8383 6.66663 21.253C10.1941 15.7016 15.5913 14.5643 18.5019 14.3908C22.9739 14.1209 27.2917 15.6437 29.4891 18.3038C31.8793 21.1759 32.8624 24.9346 32.2263 28.6163C31.6095 32.1438 29.5662 35.1701 26.617 36.9049C26.617 36.9049 20.5837 41.0877 14.1071 37.6759C11.4663 36.2495 9.88569 33.3967 9.88569 29.6958C9.88569 24.2985 14.242 19.7302 19.3886 19.7302C25.0172 19.7302 27.0218 23.4119 27.0218 26.8429C27.0218 30.7366 24.6316 32.8184 22.9161 32.8184C22.6462 32.8184 22.5499 32.722 22.5306 32.7028C22.2993 32.4329 22.4342 31.5848 22.492 31.18L23.6871 23.489C23.7064 23.3926 23.6678 23.2769 23.5907 23.2191L23.398 23.0263C23.3016 22.93 23.1474 22.9107 23.0317 22.9685L21.6439 23.6817C21.162 23.3348 20.2175 23.0842 19.3308 23.0842C15.7648 23.0842 12.8927 27.3827 12.8927 30.9487C12.8927 33.4738 14.03 34.9773 15.9383 34.9773C17.249 34.9773 18.7333 33.84 19.7741 32.4522C19.7741 33.1461 19.9284 33.7051 20.256 34.1292C20.6801 34.6882 21.3548 34.958 22.2607 34.958C26.193 34.958 29.3927 31.1222 29.3927 26.3996C29.3927 24.0672 28.5253 21.9083 26.964 20.2892C25.2099 18.4773 22.7619 17.5328 19.8512 17.5328C13.7987 17.5328 7.53404 22.2553 7.53404 30.1776C7.53404 32.8955 8.55565 35.4399 10.4061 37.3482C11.3892 38.3698 12.8349 39.3722 14.1456 39.8926C20.3524 42.3792 25.4605 40.0661 27.7543 38.7939C31.3203 36.8085 33.8069 33.1654 34.4044 29.0018C35.0213 24.6648 34.231 20.4434 31.2047 16.9159C28.5061 13.7547 23.5329 11.8657 18.3863 12.1934ZM20.3524 27.4212C19.9091 30.5632 17.7502 32.4907 16.7478 32.4907C16.2274 32.4907 15.6877 32.3365 15.6877 30.3704C15.6877 27.9417 17.4418 25.4551 19.1573 25.4551C19.7741 25.4551 20.256 25.59 20.5837 25.8406L20.3524 27.4212Z" fill="#514848"/>
<path d="M35.426 12.2126C31.6479 7.79849 24.6123 5.36975 17.4995 6.0444C14.0492 6.37209 10.7145 7.43225 7.86166 9.10924C4.66189 11.0175 2.05966 13.6583 0.15136 16.993C-0.157052 17.5327 0.0164207 18.2267 0.575418 18.5351C1.11514 18.8435 1.80907 18.67 2.11748 18.111C6.5509 10.42 13.7986 8.64663 17.7116 8.28039C24.0147 7.70211 30.4528 9.861 33.7104 13.6776C36.3705 16.8003 37.8354 21.0795 37.7198 25.3587C37.7005 25.9755 38.2017 26.5731 38.8185 26.5731C38.8378 26.5731 38.8378 26.5731 38.8571 26.5731C39.4739 26.5731 39.9751 26.0334 39.9943 25.4165C40.11 20.5976 38.4523 15.7401 35.426 12.2126Z" fill="#514848"/>
<path d="M9.01807 4.94568C18.1933 0.261675 29.913 1.80373 36.274 8.55025C36.486 8.78156 36.7944 8.89721 37.1028 8.89721C37.392 8.89721 37.6618 8.80083 37.8739 8.5888C38.3365 8.16473 38.3365 7.45153 37.9124 6.98891C34.5392 3.4229 29.6624 1.0327 24.1881 0.261675C18.6559 -0.509355 12.8925 0.435157 7.99644 2.941C7.43745 3.23014 7.22542 3.90479 7.49528 4.46379C7.78441 5.02279 8.45907 5.23482 9.01807 4.94568Z" fill="#514848"/>
<path d="M23.687 49.5883C18.0777 50.5329 12.083 49.1064 8.65188 47.2945C7.14837 46.5042 5.70269 45.4055 4.39194 44.0369C4.23773 43.8827 4.08352 43.7092 3.92932 43.5358C3.52453 43.0924 2.8306 43.0539 2.38726 43.4586C1.94391 43.8634 1.90536 44.5574 2.31015 45.0007C2.48363 45.1935 2.65711 45.3669 2.8306 45.5597C4.29555 47.0825 5.91472 48.3161 7.63026 49.2221C10.5795 50.7834 15.2056 52.0556 20.0246 52.0556C21.3739 52.0556 22.7232 51.9593 24.0532 51.7279C24.6508 51.6316 25.0555 51.0726 24.9592 50.475C24.8435 49.8967 24.2845 49.492 23.687 49.5883Z" fill="#514848"/>
</svg>
