<svg width="46" height="28" viewBox="0 0 46 28" fill="none" xmlns="http://www.w3.org/2000/svg">
<path d="M3.51953 0.980469L3.60742 3.08984C5.00195 1.44922 6.88281 0.628906 9.25 0.628906C11.9102 0.628906 13.7207 1.64844 14.6816 3.6875C15.3145 2.77344 16.1348 2.03516 17.1426 1.47266C18.1621 0.910156 19.3633 0.628906 20.7461 0.628906C24.918 0.628906 27.0391 2.83789 27.1094 7.25586V20H23.8574V7.44922C23.8574 6.08984 23.5469 5.07617 22.9258 4.4082C22.3047 3.72852 21.2617 3.38867 19.7969 3.38867C18.5898 3.38867 17.5879 3.75195 16.791 4.47852C15.9941 5.19336 15.5312 6.16016 15.4023 7.37891V20H12.1328V7.53711C12.1328 4.77148 10.7793 3.38867 8.07227 3.38867C5.93945 3.38867 4.48047 4.29688 3.69531 6.11328V20H0.443359V0.980469H3.51953ZM37.1739 15.2363L41.6036 0.980469H45.0841L37.4376 22.9355C36.254 26.0996 34.3731 27.6816 31.795 27.6816L31.1798 27.6289L29.9669 27.4004V24.7637L30.8458 24.834C31.9473 24.834 32.8028 24.6113 33.4122 24.166C34.0333 23.7207 34.543 22.9062 34.9415 21.7227L35.6622 19.7891L28.877 0.980469H32.4278L37.1739 15.2363Z" fill="#514848"/>
</svg>
