<svg width="32" height="32" viewBox="0 0 32 32" fill="none" xmlns="http://www.w3.org/2000/svg">
<path d="M31.3748 19.5125C31.0303 19.5125 30.7495 19.7925 30.7495 20.137C30.7495 20.304 30.8147 20.4375 30.9321 20.5557C31.0503 20.6738 31.2073 20.7148 31.3743 20.7148H31.3748C31.7192 20.7148 31.9993 20.4587 32 20.114C32 19.769 31.72 19.5125 31.3748 19.5125V19.5125Z" fill="white"/>
<path d="M28.8748 19.5105L26.0342 19.5088L23.5085 15.127L26.2019 10.4687C26.3137 10.2751 26.314 10.0369 26.2024 9.84351L23.5178 5.18701L25.366 2.27271C25.5508 1.98096 25.4644 1.59473 25.1726 1.40991C24.8811 1.22486 24.4949 1.31128 24.3098 1.60303L22.4456 4.53247L17.0215 4.52222C16.7981 4.52222 16.5916 4.64771 16.48 4.84082L13.7847 9.49316L8.78418 9.48096L7.48242 7.09644C7.37305 6.89526 7.16235 6.77149 6.93286 6.77149C6.8291 6.77149 6.72583 6.7981 6.63403 6.84815C6.48755 6.92822 6.38086 7.0603 6.33374 7.22095C6.28638 7.3811 6.30444 7.54981 6.38452 7.69678L7.69092 10.0867L5.125 14.5254H0.625244C0.279785 14.5254 0 14.8054 0 15.1506C0 15.4958 0.279785 15.7759 0.625244 15.7759H5.17432L7.66406 20.1001L6.13379 22.3061C6.03882 22.4429 6.00244 22.6103 6.03198 22.7742C6.06201 22.9387 6.15381 23.0823 6.29077 23.1772C6.39575 23.2505 6.5188 23.2895 6.64648 23.2895C6.85156 23.2895 7.04419 23.1897 7.16089 23.0215L8.74731 20.7373L13.7825 20.7407L16.3008 25.1091L14.7551 27.6018C14.574 27.895 14.6646 28.2812 14.9573 28.4626C15.0566 28.5239 15.1704 28.5564 15.2861 28.5564C15.5042 28.5564 15.7036 28.4458 15.8181 28.2607L17.3877 25.728L22.3716 25.7368L25.075 30.426C25.1909 30.6269 25.4009 30.739 25.6172 30.739C25.7231 30.739 25.8306 30.7121 25.929 30.6555C26.228 30.4829 26.3308 30.1006 26.1582 29.8015L23.4749 25.1472L26.0105 20.7593L28.874 20.761C29.2185 20.761 29.4985 20.481 29.4993 20.1365C29.4993 19.9695 29.4343 19.8125 29.3162 19.6943C29.1985 19.5762 29.0415 19.5112 28.8748 19.5105ZM17.3816 5.78589L22.4216 5.78906L24.939 10.1553L22.4299 14.4946L17.3899 14.4915L14.8728 10.125L17.3816 5.78589ZM13.7698 19.491L8.75098 19.4878L6.23364 15.1213L8.75659 10.7583L13.7681 10.7615L16.2891 15.1338L13.7698 19.491ZM22.416 24.4744L17.3762 24.4712L14.8696 20.1233L17.3892 15.7656L22.4355 15.7688L24.939 20.1111L22.416 24.4744Z" fill="white"/>
<path d="M5.73607 5.83521H5.7368C5.84056 5.83521 5.94383 5.80444 6.0349 5.75439C6.18187 5.67432 6.28832 5.54053 6.33568 5.38037C6.38256 5.21973 6.36449 5.05005 6.28441 4.90381C6.17504 4.70239 5.96434 4.5769 5.73558 4.5769C5.63182 4.5769 5.52806 4.60303 5.43675 4.65356C5.28978 4.73315 5.18285 4.86548 5.13597 5.02539C5.0891 5.18604 5.10717 5.35864 5.18724 5.50488C5.29662 5.7063 5.50731 5.83521 5.73607 5.83521Z" fill="white"/>
<path d="M5.57728 24.2051C5.4723 24.1318 5.34901 24.0933 5.22084 24.0933C5.01576 24.0933 4.82387 24.1938 4.70692 24.3621C4.51063 24.6453 4.5807 25.0354 4.86391 25.2324C4.96889 25.3054 5.09218 25.3442 5.22035 25.3442C5.42543 25.3442 5.61732 25.2437 5.73427 25.0754C5.93056 24.7922 5.86049 24.4021 5.57728 24.2051Z" fill="white"/>
<path d="M14.2988 29.5254C14.1995 29.4641 14.0857 29.4316 13.97 29.4316C13.7517 29.4316 13.553 29.5425 13.438 29.7273C13.3499 29.8694 13.3223 30.0374 13.3604 30.2002C13.3987 30.3625 13.4981 30.5007 13.6399 30.5884C13.7393 30.6494 13.8526 30.6821 13.9688 30.6821C14.187 30.6821 14.3858 30.5713 14.5007 30.3865C14.5889 30.2444 14.6165 30.0769 14.5784 29.9143C14.5396 29.7517 14.4407 29.6138 14.2988 29.5254V29.5254Z" fill="white"/>
<path d="M10.1088 5.82446C10.1879 5.87036 10.2797 5.89331 10.3923 5.89331C10.5007 5.89331 10.6017 5.87036 10.6828 5.82446C10.7641 5.77856 10.8107 5.71606 10.8107 5.63696V3.83447H12.1862V5.63696C12.1862 5.71606 12.2338 5.77856 12.3132 5.82446C12.3923 5.87036 12.4921 5.89331 12.6047 5.89331C12.7131 5.89331 12.8019 5.87036 12.8832 5.82446C12.9645 5.77856 12.999 5.71606 12.999 5.63696V1.57104C12.999 1.48779 12.9675 1.42505 12.8884 1.3833C12.809 1.3418 12.7172 1.3208 12.6047 1.3208C12.4921 1.3208 12.3901 1.3418 12.3112 1.3833C12.2319 1.42505 12.1862 1.48779 12.1862 1.57104V3.20923H10.811V1.57104C10.811 1.48779 10.7631 1.42505 10.684 1.3833C10.6049 1.3418 10.5048 1.3208 10.3923 1.3208C10.2797 1.3208 10.1899 1.3418 10.1108 1.3833C10.0314 1.42505 9.99823 1.48779 9.99823 1.57104V5.63672C9.99799 5.71606 10.0295 5.77856 10.1088 5.82446Z" fill="white"/>
<path d="M29.898 12.4548C29.8187 12.4131 29.7289 12.3921 29.6163 12.3921C29.5038 12.3921 29.3988 12.4131 29.3197 12.4548C29.2403 12.4963 29.1917 12.5591 29.1917 12.6423V14.2751H27.8163V12.6423C27.8163 12.5591 27.7728 12.4963 27.6937 12.4548C27.6143 12.4131 27.5164 12.3921 27.4039 12.3921C27.2914 12.3921 27.1986 12.4131 27.1192 12.4548C27.0401 12.4963 27.0035 12.5591 27.0035 12.6423V16.708C27.0035 16.7874 27.0392 16.8499 27.1183 16.8958C27.1976 16.9417 27.2914 16.9646 27.4041 16.9646C27.5123 16.9646 27.6102 16.9417 27.6915 16.8958C27.7728 16.8499 27.8163 16.7874 27.8163 16.708V14.9004H29.1917V16.7083C29.1917 16.7874 29.2435 16.8499 29.3226 16.8958C29.4019 16.9417 29.5038 16.9646 29.6165 16.9646C29.7247 16.9646 29.8106 16.9417 29.8917 16.8958C29.973 16.8499 30.0045 16.7874 30.0045 16.7083V12.6423C30.0045 12.5591 29.9771 12.4963 29.898 12.4548V12.4548Z" fill="white"/>
<path d="M2.89394 18.2969C3.00648 18.2969 3.09999 18.3125 3.18349 18.3438C3.26698 18.375 3.32729 18.4126 3.36903 18.4563C3.41078 18.5002 3.44398 18.5544 3.47133 18.6191C3.49818 18.6838 3.51454 18.7358 3.52065 18.7754C3.52699 18.8152 3.53188 18.8621 3.53603 18.9163C3.54018 19.0872 3.67567 19.1726 3.94252 19.1726C4.08852 19.1726 4.19276 19.1445 4.25526 19.0881C4.31776 19.0317 4.34901 18.9265 4.34901 18.7722C4.34901 18.4138 4.21034 18.126 3.933 17.9092C3.65565 17.6924 3.29823 17.5837 2.86024 17.5837C2.4308 17.5837 2.0912 17.6997 1.82436 17.9309C1.55751 18.1624 1.43275 18.5242 1.43275 19.0161V20.7615C1.43275 21.2534 1.55653 21.6152 1.82143 21.8467C2.08607 22.0779 2.42885 22.1938 2.85854 22.1938C3.30043 22.1938 3.65785 22.0811 3.9352 21.856C4.21254 21.6309 4.35023 21.3306 4.35023 20.9553C4.35023 20.801 4.31728 20.6958 4.25258 20.6394C4.18788 20.5833 4.08241 20.5549 3.93642 20.5549C3.68202 20.5549 3.54848 20.6404 3.53603 20.8113C3.53188 20.8989 3.52235 20.9731 3.50795 21.0334C3.4933 21.094 3.46596 21.1628 3.42641 21.24C3.38686 21.3171 3.32216 21.3765 3.23256 21.4182C3.14296 21.46 3.03993 21.4807 2.90639 21.4807C2.4601 21.4807 2.24574 21.241 2.24574 20.7615V19.0164C2.2455 18.5369 2.45595 18.2969 2.89394 18.2969V18.2969Z" fill="white"/>
</svg>
