<svg width="38" height="39" viewBox="0 0 38 39" fill="none" xmlns="http://www.w3.org/2000/svg">
<path d="M28.883 0.00299072C29.449 0.23191 29.9238 0.641135 30.2337 1.16724C30.5436 1.69334 30.6713 2.30692 30.597 2.91296C30.537 6.55596 30.577 10.2 30.577 13.842V14.796L28.367 14.416V13.525C28.367 10.325 28.367 7.12697 28.367 3.93097C28.367 2.71797 27.987 2.34296 26.776 2.34296C19.128 2.34296 11.48 2.34296 3.83203 2.34296C2.61203 2.34296 2.24203 2.70097 2.24103 3.93597C2.23636 13.8366 2.23636 23.7367 2.24103 33.636C2.24103 34.836 2.64099 35.217 3.85699 35.219C7.97299 35.219 12.089 35.232 16.205 35.205C16.4626 35.1888 16.7201 35.237 16.9544 35.3453C17.1887 35.4535 17.3923 35.6184 17.547 35.825C18.058 36.441 18.647 36.995 19.2 37.574H2C1.54036 37.4578 1.11686 37.2291 0.7677 36.9084C0.418542 36.5877 0.154706 36.1851 0 35.737V1.83698C0.1392 1.40753 0.378199 1.01718 0.697327 0.697876C1.01645 0.378574 1.40663 0.139434 1.836 0L28.883 0.00299072Z" fill="white"/>
<path d="M15.2499 12.8768C13.4979 12.8768 11.7439 12.8438 9.99189 12.8908C9.12389 12.9138 9.05691 12.4358 9.06391 11.7818C9.07091 11.1278 9.03991 10.5458 9.97291 10.5508C13.5349 10.5721 17.0959 10.5721 20.6559 10.5508C21.6769 10.5508 21.5059 11.2508 21.5419 11.8848C21.5809 12.5848 21.342 12.9008 20.591 12.8848C18.812 12.8538 17.0309 12.8768 15.2499 12.8768Z" fill="white"/>
<path d="M18.7642 17.6199C18.1642 18.3519 17.6641 18.9819 17.1331 19.5789C16.9796 19.7553 16.7655 19.8677 16.5331 19.8939C14.2831 19.9159 12.0331 19.9029 9.78113 19.9079C9.15113 19.9079 9.03612 19.5009 9.08112 19.0169C9.12712 18.4919 8.79512 17.6579 9.69812 17.6399C12.6901 17.5849 15.6832 17.6199 18.7642 17.6199Z" fill="white"/>
<path d="M14.753 24.673L14.403 26.929C12.81 26.929 11.203 27.001 9.60299 26.9C8.78299 26.848 9.12497 26.04 9.07797 25.539C9.03597 25.099 9.12799 24.676 9.71499 24.674C11.381 24.671 13.047 24.673 14.753 24.673Z" fill="white"/>
<path d="M26.4131 17.291H27.9781C28.063 17.3207 28.1499 17.3445 28.2381 17.3621C30.2454 17.547 32.1527 18.3239 33.7178 19.5944C35.2829 20.8648 36.4354 22.5716 37.0291 24.498C37.2544 25.2745 37.4287 26.0648 37.5511 26.864V28.429C37.5207 28.5302 37.4957 28.6332 37.4761 28.7371C37.2835 30.7199 36.5129 32.6026 35.26 34.1515C34.0071 35.7004 32.327 36.8474 30.4281 37.4501C29.6243 37.6883 28.8055 37.8727 27.9771 38.0021H26.4121C26.3275 37.9713 26.2406 37.9475 26.1521 37.931C24.1187 37.7267 22.1918 36.923 20.6158 35.6219C19.0398 34.3209 17.8858 32.581 17.3001 30.623C17.0861 29.91 16.9901 29.161 16.8391 28.429V26.864C16.8695 26.7783 16.8933 26.6904 16.9101 26.6011C17.1171 24.5439 17.937 22.5963 19.2637 21.0105C20.5904 19.4247 22.3627 18.2739 24.3511 17.707C25.0231 17.511 25.7261 17.427 26.4131 17.291ZM18.8941 27.5911C18.8831 29.2329 19.3592 30.8412 20.2623 32.2124C21.1655 33.5836 22.455 34.6561 23.9678 35.2943C25.4806 35.9325 27.1488 36.1076 28.7612 35.7976C30.3735 35.4876 31.8577 34.7062 33.026 33.5525C34.1943 32.3988 34.9941 30.9245 35.3243 29.3162C35.6545 27.7078 35.5003 26.0377 34.8812 24.517C34.262 22.9963 33.2057 21.6933 31.8459 20.7731C30.4861 19.8528 28.8839 19.3566 27.2421 19.347C25.0463 19.3479 22.9391 20.2134 21.3768 21.7563C19.8144 23.2993 18.9225 25.3954 18.8941 27.5911Z" fill="white"/>
<path d="M32.3602 30.6522L31.5402 31.9832L28.3512 30.0222C27.7122 29.6292 27.0672 29.2441 26.4392 28.8331C26.3682 28.7871 26.3075 28.7268 26.261 28.656C26.2146 28.5853 26.1833 28.5057 26.1692 28.4222C26.1522 26.5062 26.1592 24.5892 26.1622 22.6722C26.1698 22.6175 26.1825 22.5636 26.2002 22.5112H27.7052V23.0052C27.7052 24.4622 27.7202 25.9192 27.6952 27.3752C27.6801 27.5306 27.714 27.6867 27.7922 27.8218C27.8704 27.9568 27.989 28.0639 28.1312 28.1282C29.5332 28.9452 30.9192 29.7872 32.3602 30.6522Z" fill="white"/>
</svg>
